<?xml version="1.0" encoding="utf-8"?>
<?xml-stylesheet type="text/xsl" href="rss1.xsl"?>
<rss version="2.0" xmlns:atom="http://www.w3.org/2005/Atom" xmlns:content="http://purl.org/rss/1.0/modules/content/" xmlns:dc="http://purl.org/dc/elements/1.1/" xmlns:media="http://search.yahoo.com/mrss/">
<channel>
 <title>Getty</title>
 <link>http://www.gettyimg.com/</link>
 <atom:link href="http://www.gettyimg.com/" rel="self" type="application/rss+xml" />

 
                <item>
                <title><![CDATA[【Requests】[REQ VID] - Tinashe - Tiny Desk Concert]]></title>
                <link><![CDATA[https://sharemania.us/threads/tinashe-tiny-desk-concert.237367/]]></link>
                <description><![CDATA[<article>
<blockquote class="messageText SelectQuoteContainer ugc baseHtml">
Can someome plase rip it from their website?<br>
<br>
<a href="https://www.npr.org/2024/02/09/1230166589/tiny-desk-concert-tinashe" target="_blank" class="externalLink" rel="nofollow">https://www.npr.org/2024/02/09/1230166589/tiny-desk-concert-tinashe</a>
<div class="messageTextEndMarker">&nbsp;</div>
</blockquote>
</article>]]></description>
                <author><![CDATA[Paulorpaes]]></author>
                </item>

                
                <item>
                <title><![CDATA[【Apple Music】WEB-RiP - Melanie Martinez - FAERIE SOIRÉE [1080p AM WEB-DL AAC2.0 H.264]]]></title>
                <link><![CDATA[https://sharemania.us/threads/melanie-martinez-faerie-soir%C3%89e-1080p-am-web-dl-aac2-0-h-264.237368/]]></link>
                <description><![CDATA[<article>
<blockquote class="messageText SelectQuoteContainer ugc baseHtml">
<div style="text-align: center"><img src="https://i.imgur.com/TG9k9IX.jpeg" class="bbCodeImage LbImage" alt="[​IMG]" data-url="https://i.imgur.com/TG9k9IX.jpeg" style=""> <br>
<div style="text-align: center">​</div>
<div class="ToggleTriggerAnchor bbCodeSpoilerContainer">
<button type="button" class="button bbCodeSpoilerButton ToggleTrigger Tooltip JsOnly" data-target="> .SpoilerTarget"><span>Spoiler</span></button>
<div class="SpoilerTarget bbCodeSpoilerText">General<br>
Complete name : C:\Users\Downloads\Gamdl\Apple Music\Melanie Martinez\FAERIE SOIRÉE.m4v<br>
Format : MPEG-4<br>
Codec ID : M4V (isom/iso4/M4V /mp42)<br>
File size : 340 MiB<br>
Duration : 4 min 39 s<br>
Overall bit rate mode : Variable<br>
Overall bit rate : 10.2 Mb/s<br>
Frame rate : 23.976 FPS<br>
Movie name : FAERIE SOIRÉE<br>
Performer : Melanie Martinez<br>
Genre : Alternative<br>
ContentType : Music Video<br>
Recorded date : 2024-02-09 08:00:00 UTC<br>
Encoded date : 2024-02-09 18:57:28 UTC<br>
Tagged date : 2024-02-09 18:57:28 UTC<br>
Copyright : ℗ © 2023 Atlantic Recording Corporation<br>
Cover : Yes<br>
Rating : None<br>
GenreID : 1620<br>
AppleStoreCountry : Brazil<br>
AlbumTitleID : 993014053<br>
AppleStoreCatalogID : 1729637710<br>
Video<br>
ID : 2<br>
Format : AVC<br>
Format/Info : Advanced Video Codec<br>
Format profile : High@L4<br>
Format settings : CABAC / 4 Ref Frames<br>
Format settings, CABAC : Yes<br>
Format settings, Reference : 4 frames<br>
Format settings, Slice coun : 8 slices per frame<br>
Codec ID : avc1<br>
Codec ID/Info : Advanced Video Coding<br>
Duration : 4 min 39 s<br>
Bit rate : 9 916 kb/s<br>
Maximum bit rate : 15.4 Mb/s<br>
Width : 1 920 pixels<br>
Height : 1 080 pixels<br>
Display aspect ratio : 16:9<br>
Frame rate mode : Constant<br>
Frame rate : 23.976 (24000/1001) FPS<br>
Color space : YUV<br>
Chroma subsampling : 4:2:0<br>
Bit depth : 8 bits<br>
Scan type : Progressive<br>
Bits/(Pixel*Frame) : 0.199<br>
Stream size : 330 MiB (97%)<br>
Title : Core Media Video<br>
Encoded date : 2024-02-07 19:42:43 UTC<br>
Tagged date : 2024-02-09 18:57:33 UTC<br>
Color range : Limited<br>
Color primaries : BT.709<br>
Transfer characteristics : BT.709<br>
Matrix coefficients : BT.709<br>
Codec configuration box : avcC<br>
Audio<br>
ID : 1<br>
Format : AAC LC<br>
Format/Info : Advanced Audio Codec Low Complexity<br>
Codec ID : mp4a-40-2<br>
Duration : 4 min 39 s<br>
Duration_LastFrame : -1 ms<br>
Bit rate mode : Variable<br>
Bit rate : 265 kb/s<br>
Maximum bit rate : 342 kb/s<br>
Channel(s) : 2 channels<br>
Channel layout : L R<br>
Sampling rate : 48.0 kHz<br>
Frame rate : 46.875 FPS (1024 SPF)<br>
Compression mode : Lossy<br>
Stream size : 8.73 MiB (3%)<br>
Title : Core Media Audio<br>
Encoded date : 2024-02-07 19:42:36 UTC<br>
Tagged date : 2024-02-09 18:57:33 UTC</div>
</div><br>
<div class="bbCodeBlock bbCodeVfcHH HiddenContent">
<div class="attribution type">Hidden Content:</div>
<blockquote>You must reply before you can see the hidden data contained here.</blockquote>
</div></div>
<div class="messageTextEndMarker">&nbsp;</div>
</blockquote>
</article>]]></description>
                <author><![CDATA[Brungor]]></author>
                </item>

                </channel></rss>